<?xml version="1.0" encoding="UTF-8"?>
<svg version="1.1" xmlns="http://www.w3.org/2000/svg" width="100" height="100">
<path d="M0 0 C1.43510422 -0.01142029 1.43510422 -0.01142029 2.89920044 -0.02307129 C4.92154331 -0.033868 6.94394191 -0.03672714 8.96630859 -0.03222656 C12.05271006 -0.03125554 15.1366145 -0.0728549 18.22265625 -0.1171875 C20.190099 -0.12239571 22.15755036 -0.12508267 24.125 -0.125 C25.50339554 -0.1495929 25.50339554 -0.1495929 26.90963745 -0.17468262 C31.26126272 -0.12800664 34.2770653 0.05901396 37.76220703 2.81835938 C41.58353459 6.98094536 41.33213408 10.62047355 41.29296875 15.98046875 C41.2915538 16.70869339 41.29013885 17.43691803 41.28868103 18.18721008 C41.28308909 20.51026539 41.27053812 22.83322388 41.2578125 25.15625 C41.25279646 26.73242048 41.24823373 28.30859248 41.24414062 29.88476562 C41.2331223 33.74613098 41.21586324 37.60742408 41.1953125 41.46875 C38.5553125 40.80875 35.9153125 40.14875 33.1953125 39.46875 C33.1953125 29.23875 33.1953125 19.00875 33.1953125 8.46875 C19.3353125 8.46875 5.4753125 8.46875 -8.8046875 8.46875 C-8.8046875 26.28875 -8.8046875 44.10875 -8.8046875 62.46875 C-1.8746875 62.79875 5.0553125 63.12875 12.1953125 63.46875 C13.1853125 66.93375 13.1853125 66.93375 14.1953125 70.46875 C10.32071172 70.61459726 6.44682133 70.70300444 2.5703125 70.78125 C1.47589844 70.82314453 0.38148437 70.86503906 -0.74609375 70.90820312 C-9.86519474 71.04637132 -9.86519474 71.04637132 -13.515625 68.13671875 C-16.66073774 64.47099861 -16.93182551 61.91835525 -16.96582031 57.25048828 C-16.97542786 56.18573273 -16.9850354 55.12097717 -16.99493408 54.0239563 C-16.99918396 52.87394135 -17.00343384 51.72392639 -17.0078125 50.5390625 C-17.01351257 49.35657928 -17.01921265 48.17409607 -17.02508545 46.95578003 C-17.03453715 44.45246272 -17.0410701 41.94913297 -17.04492188 39.44580078 C-17.05463112 35.61599039 -17.0856553 31.78671574 -17.1171875 27.95703125 C-17.12371719 25.52604486 -17.12896779 23.09505462 -17.1328125 20.6640625 C-17.1451593 19.51809601 -17.1575061 18.37212952 -17.17022705 17.19143677 C-17.16722595 16.12037689 -17.16422485 15.04931702 -17.16113281 13.94580078 C-17.16477844 13.00664825 -17.16842407 12.06749573 -17.17218018 11.09988403 C-16.62804514 7.20404527 -14.79753529 4.59305391 -12.22998047 1.68554688 C-8.30154902 -0.28539155 -4.3345017 0.00094589 0 0 Z " fill="#218AE6" transform="translate(37.8046875,14.53125)"/>
<path d="M0 0 C4.43072963 4.01856873 6.48596187 8.09965771 7 14.0625 C6.6875 17.4375 6.6875 17.4375 5.75 20.4375 C5.35099553 23.44788619 5.35099553 23.44788619 7.21484375 25.19140625 C8.52154854 26.38943461 9.83661087 27.57841563 11.16015625 28.7578125 C12.6875 30.4375 12.6875 30.4375 12.625 33.375 C11.6875 35.4375 11.6875 35.4375 9.9140625 36.15625 C9.17929688 36.2490625 8.44453125 36.341875 7.6875 36.4375 C5.8984375 34.96875 5.8984375 34.96875 4.0625 32.9375 C1.12117391 30.10075071 1.12117391 30.10075071 -2.73828125 29.296875 C-4.42514227 29.55921731 -6.10892476 29.84210646 -7.7890625 30.14453125 C-12.05322392 30.63959643 -15.5900738 29.49327778 -19.3125 27.4375 C-22.49357656 24.58288237 -25.11825141 21.38635469 -25.55078125 17.046875 C-25.70886908 10.95633322 -25.57740941 7.1634807 -21.3125 2.4375 C-14.8223904 -3.56585138 -7.88400432 -3.71886996 0 0 Z M-15.6875 7 C-17.89581487 10.3124723 -18.38124509 12.45028471 -18.3125 16.4375 C-16.48581062 20.01287156 -16.48581062 20.01287156 -13.3125 22.4375 C-9.8125 23.35416667 -9.8125 23.35416667 -6.3125 22.4375 C-3.58614529 20.3038311 -1.8466927 18.57711109 -0.375 15.4375 C-0.25968907 11.7475501 -1.51760891 9.29127191 -4 6.625 C-8.12092931 4.50884711 -11.79477468 4.4389965 -15.6875 7 Z " fill="#208DE6" transform="translate(78.3125,59.5625)"/>
<path d="M0 0 C9.24 0 18.48 0 28 0 C28.33 0.99 28.66 1.98 29 3 C28.67 3.66 28.34 4.32 28 5 C18.76 5 9.52 5 0 5 C-0.33 4.01 -0.66 3.02 -1 2 C-0.67 1.34 -0.34 0.68 0 0 Z " fill="#218AE6" transform="translate(36,42)"/>
<path d="M0 0 C9.24 0 18.48 0 28 0 C28.33 0.99 28.66 1.98 29 3 C28.67 3.66 28.34 4.32 28 5 C18.76 5 9.52 5 0 5 C-0.33 4.01 -0.66 3.02 -1 2 C-0.67 1.34 -0.34 0.68 0 0 Z " fill="#228BE6" transform="translate(36,31)"/>
<path d="M0 0 C9.24 0 18.48 0 28 0 C24.87859739 3.12140261 23.02065231 4.80737939 18.61816406 5.22705078 C17.32990723 5.21134033 17.32990723 5.21134033 16.015625 5.1953125 C15.08105469 5.18886719 14.14648438 5.18242188 13.18359375 5.17578125 C12.21550781 5.15902344 11.24742188 5.14226563 10.25 5.125 C9.26644531 5.11597656 8.28289063 5.10695313 7.26953125 5.09765625 C4.84610593 5.07412785 2.42317778 5.04125368 0 5 C-0.33 4.01 -0.66 3.02 -1 2 C-0.67 1.34 -0.34 0.68 0 0 Z " fill="#218AE6" transform="translate(36,53)"/>
<path d="M0 0 C4.95 0 9.9 0 15 0 C14.67 1.65 14.34 3.3 14 5 C9.38 5 4.76 5 0 5 C-0.33 4.01 -0.66 3.02 -1 2 C-0.67 1.34 -0.34 0.68 0 0 Z " fill="#228AE6" transform="translate(36,64)"/>
<path d="M0 0 C3.0625 0.125 3.0625 0.125 5.0625 1.125 C5.105221 2.79111905 5.10313832 4.45882885 5.0625 6.125 C4.0625 7.125 4.0625 7.125 1.99609375 7.22265625 C1.17238281 7.21105469 0.34867187 7.19945313 -0.5 7.1875 C-1.32628906 7.17847656 -2.15257813 7.16945313 -3.00390625 7.16015625 C-3.64199219 7.14855469 -4.28007813 7.13695313 -4.9375 7.125 C-3.90105353 0.16600228 -3.90105353 0.16600228 0 0 Z " fill="#218AE5" transform="translate(66.9375,67.875)"/>
</svg>
